#tb 0: 1001/24000
0,          0,          0,        1,  3686400, 0xb37a6e69
0,          1,          1,        1,  3686400, 0x66a45032
0,          2,          2,        1,  3686400, 0xdf0c861f
0,          3,          3,        1,  3686400, 0xa4a68cdb
